<svg xmlns="http://www.w3.org/2000/svg" fill="white" data-name="Layer 1" viewBox="0 0 128 160" x="0px" y="0px"><title>pet_expandline</title><path d="M104.68849,102.9976h-8.6831c.1953-1.7071,2.0092-2.8189,3.6147-3.8023a10.2415,10.2415,0,0,0,2.0532-1.4775c2.0596-2.1763,1.4239-4.6792.8633-6.8882,0,0-.622-2.3428-.95159-3.4199-.71241-.5122-1.44051-1.0059-2.18661-1.4683-.1616-.1001-.3247-.1904-.4878-.2842.6431,1.8726,1.6875,5.6646,1.6875,5.6646.5914,2.3281.8648,3.709-.3779,5.022a9.50943,9.50943,0,0,1-1.6455,1.1469c-1.8423,1.128-4.36669,2.6743-4.5762,5.5366v.9698a1.00022,1.00022,0,0,0,1,1.0005h9.939A3.77209,3.77209,0,0,1,104.68849,102.9976Z"/><path d="M28.6421,102.9976H22.9985v-1.2339a3.63333,3.63333,0,0,1,1.8008-2.8057,26.4221,26.4221,0,0,1,2.5034-1.022,12.819,12.819,0,0,0,6.2564-5.1982c2.2641-4.1279,3.3183-9.9175,3.7842-15.229a47.6118,47.6118,0,0,0-1.7286-4.9697c-.1933,6.1181-1.0268,14.165-3.8095,19.2363a10.92171,10.92171,0,0,1-5.1714,4.2764,28.02718,28.02718,0,0,0-2.6973,1.1015,5.60345,5.60345,0,0,0-2.938,4.6104v2.2334a1.00022,1.00022,0,0,0,1,1.0005h6.8907A3.789,3.789,0,0,1,28.6421,102.9976Z"/><path d="M127.60839,93.2983c-1.6147-6.6464-2.123-24.4111-2.1279-24.5903-.1602-5.7939-.5601-12.4658-3.2954-18.3081-4.0494-8.6504-13.064-14.0322-24.7344-14.7661a55.15191,55.15191,0,0,0-8.6309.1089c-15.2895,1.4443-30.1162,2.3364-43.458-2.5264a29.32457,29.32457,0,0,1-3.4956-1.4849,57.39729,57.39729,0,0,0-15.6186-5.4775,9.83773,9.83773,0,0,0-.4356-3.5869.99911.99911,0,0,0-1.1108-.6524,6.999,6.999,0,0,0-5.3042,3.5152,28.46826,28.46826,0,0,0-5.2144.6079,12.86914,12.86914,0,0,0-3.6894,1.8691l-.0889.0577c-.3887.2539-.8027.4936-1.1924.706a9.64183,9.64183,0,0,1-3.3335.9619c-1.8828.0991-4.4263.1377-4.4516.1382a.99988.99988,0,0,0-.9141.6299,9.83972,9.83972,0,0,0-.0093,6.126c.166.4482,1.0449,2.021,5.335,3.4121.1479.0586,14.8388,5.9717,19.9521,13.1338a.96825.96825,0,0,0,.0821.1005c.1884.2022,18.7524,20.3936,14.2153,40.7872-.4141,1.8579-2.5698,3.8339-4.3301,4.5991-3.3428,1.4541-4.9629,2.8139-5.0542,4.2544a1.86838,1.86838,0,0,0,.1094,1.5293c.5381.9892,1.8589,1.4804,4.1855,1.5468l10.0435-.0009c.0928-.0039,9.34859-.5401,10.54389-12.5542.3262-7.4283,2.042-19.7554,5.2583-21.2075a1.00014,1.00014,0,1,0-.8237-1.8228c-5.3799,2.4297-6.3408,20.8501-6.4282,22.8867-1.0152,10.1865-8.3301,10.6836-8.5938,10.6987l-9.9707.0005a4.60664,4.60664,0,0,1-2.4106-.4653,1.28889,1.28889,0,0,0,.083-.4761c-.0005-.0088.1455-.9419,3.8555-2.5556,2.227-.9683,4.9057-3.3994,5.4843-5.9986,4.6958-21.1069-13.3808-41.1528-14.6601-42.5371C21.8945,44.3418,7.2026,38.4287,6.5171,38.1582c-3.5073-1.1392-4.1582-2.2427-4.1294-2.2026a8.38773,8.38773,0,0,1-.2148-4.0987c.9082-.0185,2.5107-.0586,3.8115-.1269a11.51242,11.51242,0,0,0,4.185-1.2036c.4331-.2359.8936-.5039,1.3267-.7862l.0889-.0576a11.909,11.909,0,0,1,3.0166-1.5893,26.36852,26.36852,0,0,1,5.4267-.5708,1.00061,1.00061,0,0,0,.9195-.6104,4.71343,4.71343,0,0,1,3.186-2.7173,7.79011,7.79011,0,0,1,.0312,2.6685.99971.99971,0,0,0,.7837,1.1513,54.80812,54.80812,0,0,1,15.9932,5.4898,31.07593,31.07593,0,0,0,3.7349,1.5908c13.7334,5.0059,28.8071,4.105,44.3315,2.6392a52.99688,52.99688,0,0,1,8.3164-.1045c10.919.6865,19.31931,5.6504,23.04931,13.6177,2.57229,5.4951,2.95269,11.9223,3.107,17.4878,0,.1606.50729,18.1357,2.18749,25.0483.0127.0478,1.2016,4.8032-.9942,7.7837a6.67285,6.67285,0,0,1-5.3335,2.4223s-9.4092.0015-9.4433.0044c-.0064.0025-.9307.0611-1.229-.4516-.12549-.4976,1.541-2.147,2.2524-2.8511.4199-.4155.8276-.8193,1.1675-1.1943,1.47261-1.6236,2.0444-3.2129,1.7012-4.7256a7.40307,7.40307,0,0,0-1.9073-3.1646c-.1382-.1596-.2759-.3173-.4077-.4746a41.85157,41.85157,0,0,0-9.9678-8.5903C96.11669,79.1992,90.626,79.021,84.813,78.833l-.94291-.0312c-4.5049-.1534-8.9795-.4146-13.2993-.7759l-.6772-.0562c-2.8301-.2353-6.0381-.5024-8.7281-.957a.99965.99965,0,1,0-.334,1.9712c2.774.4697,6.0269.7397,8.89651.9785l.67529.0566c4.353.3638,8.8609.627,13.3989.7818l.9463.0307c5.7779.1875,10.7686.3497,15.7041,3.4107a39.8277,39.8277,0,0,1,9.4878,8.1724c.1402.1684.2862.3364.4341.5053a5.75361,5.75361,0,0,1,1.4649,2.294c.2368,1.0454-.5391,2.1748-1.233,2.9394-.3183.3516-.6997.7285-1.0922,1.1162-1.6788,1.6612-3.5816,3.5445-2.5738,5.2788A3.2284,3.2284,0,0,0,109.77249,106c.0966,0,9.6176-.0117,9.6176-.0117,3.107-.1533,5.4268-1.2412,6.8946-3.2349C129.03709,99.0166,127.665,93.5181,127.60839,93.2983Z"/><path d="M18.1318,31.3696a2.33075,2.33075,0,0,0-1.5532.5547c-.0874.0874-.1387.2149.0425.2735.3945.1264.9995.4985,1.4487.4282a3.73363,3.73363,0,0,0,1.0757-.3936c.2803-.1391.5591-.292.1382-.4868A3.50666,3.50666,0,0,0,18.1318,31.3696Z"/></svg>